<mxfile host="app.diagrams.net" modified="2024-01-27T05:46:24.626Z" agent="Mozilla/5.0 (Macintosh; Intel Mac OS X 10_15_7) AppleWebKit/537.36 (KHTML, like Gecko) Chrome/121.0.0.0 Safari/537.36" version="23.0.2" etag="psdNzh9w46wdCehCDQJW" type="github">
  <diagram name="페이지-1" id="TvI6blKfMq0DTSTNRf4D">
    <mxGraphModel>
      <root>
        <mxCell id="0" />
        <mxCell id="1" parent="0" />
      </root>
    </mxGraphModel>
  </diagram>
</mxfile>
